<?xml version="1.0" encoding="UTF-8"?>
<svg version="1.1" xmlns="http://www.w3.org/2000/svg" width="512" height="512">
<path d="M0 0 C168.96 0 337.92 0 512 0 C512 168.96 512 337.92 512 512 C343.04 512 174.08 512 0 512 C0 343.04 0 174.08 0 0 Z " fill="#FF0000" transform="translate(0,0)"/>
<path d="M0 0 C31.68 0 63.36 0 96 0 C96 36.96 96 73.92 96 112 C132.96 112 169.92 112 208 112 C208 143.68 208 175.36 208 208 C171.04 208 134.08 208 96 208 C96 244.96 96 281.92 96 320 C64.32 320 32.64 320 0 320 C0 283.04 0 246.08 0 208 C-36.96 208 -73.92 208 -112 208 C-112 176.32 -112 144.64 -112 112 C-75.04 112 -38.08 112 0 112 C0 75.04 0 38.08 0 0 Z " fill="#FFFFFF" transform="translate(208,96)"/>
</svg>
