<?xml version="1.0" encoding="UTF-8"?>
<svg version="1.1" xmlns="http://www.w3.org/2000/svg" width="960" height="576">
<path d="M0 0 C316.8 0 633.6 0 960 0 C960 190.08 960 380.16 960 576 C643.2 576 326.4 576 0 576 C0 385.92 0 195.84 0 0 Z " fill="#DD0000" transform="translate(0,0)"/>
<path d="M0 0 C316.8 0 633.6 0 960 0 C960 63.36 960 126.72 960 192 C643.2 192 326.4 192 0 192 C0 128.64 0 65.28 0 0 Z " fill="#FFCE00" transform="translate(0,384)"/>
<path d="M0 0 C316.8 0 633.6 0 960 0 C960 63.36 960 126.72 960 192 C643.2 192 326.4 192 0 192 C0 128.64 0 65.28 0 0 Z " fill="#000000" transform="translate(0,0)"/>
</svg>
