<?xml version="1.0" encoding="UTF-8"?>
<svg version="1.1" xmlns="http://www.w3.org/2000/svg" width="960" height="576">
<path d="M0 0 C316.8 0 633.6 0 960 0 C960 190.08 960 380.16 960 576 C643.2 576 326.4 576 0 576 C0 385.92 0 195.84 0 0 Z " fill="#C8112F" transform="translate(0,0)"/>
<path d="M0 0 C139.26 0 278.52 0 422 0 C422 75.9 422 151.8 422 230 C282.74 230 143.48 230 0 230 C0 154.1 0 78.2 0 0 Z " fill="#FEFEFE" transform="translate(538,346)"/>
<path d="M0 0 C139.26 0 278.52 0 422 0 C422 75.9 422 151.8 422 230 C282.74 230 143.48 230 0 230 C0 154.1 0 78.2 0 0 Z " fill="#FEFEFE" transform="translate(0,346)"/>
<path d="M0 0 C139.26 0 278.52 0 422 0 C422 75.9 422 151.8 422 230 C282.74 230 143.48 230 0 230 C0 154.1 0 78.2 0 0 Z " fill="#FEFEFE" transform="translate(538,0)"/>
<path d="M0 0 C139.26 0 278.52 0 422 0 C422 75.9 422 151.8 422 230 C282.74 230 143.48 230 0 230 C0 154.1 0 78.2 0 0 Z " fill="#FEFEFE" transform="translate(0,0)"/>
<path d="M0 0 C11.23809524 5.61904762 11.23809524 5.61904762 15.9765625 8.5390625 C17.04261719 9.19197266 18.10867188 9.84488281 19.20703125 10.51757812 C19.76213379 10.85990479 20.31723633 11.20223145 20.88916016 11.55493164 C23.95423679 13.44441559 27.02810679 15.3194995 30.1015625 17.1953125 C30.74482483 17.58821472 31.38808716 17.98111694 32.05084229 18.38592529 C39.32813655 22.82320085 46.66360504 27.16141966 54 31.5 C64.61190889 37.77942624 75.18100663 44.12293376 85.70898438 50.54199219 C95.09842559 56.26451936 104.53738361 61.89939881 114 67.5 C124.61130098 73.78046857 135.18099227 80.122925 145.70898438 86.54199219 C155.09842559 92.26451936 164.53738361 97.89939881 174 103.5 C185.18179981 110.11812745 196.31274361 116.81260823 207.40649414 123.57714844 C215.69027897 128.62240686 224.01985044 133.58697409 232.36767578 138.52545166 C242.45300833 144.49213091 252.52327574 150.47771667 262.5 156.625 C263.37841553 157.16350586 264.25683105 157.70201172 265.16186523 158.25683594 C265.94376221 158.7418457 266.72565918 159.22685547 267.53125 159.7265625 C268.20736328 160.14502441 268.88347656 160.56348633 269.58007812 160.99462891 C270.04865234 161.32640137 270.51722656 161.65817383 271 162 C271 162.33 271 162.66 271 163 C181.57 163 92.14 163 0 163 C0 109.21 0 55.42 0 0 Z " fill="#012169" transform="translate(576,413)"/>
<path d="M0 0 C0 53.79 0 107.58 0 163 C-89.43 163 -178.86 163 -271 163 C-268.09216417 160.09216417 -265.20027338 158.18774307 -261.69140625 156.1484375 C-261.06193588 155.77743927 -260.43246552 155.40644104 -259.78392029 155.02420044 C-258.42421312 154.22328201 -257.06333365 153.42435112 -255.70141602 152.62719727 C-252.04662989 150.48755589 -248.40070695 148.33290141 -244.75390625 146.1796875 C-244.01194 145.74207092 -243.26997375 145.30445435 -242.50552368 144.85357666 C-235.63340657 140.7954718 -228.81205562 136.65806571 -222 132.5 C-211.36767044 126.01518446 -200.67630841 119.63521221 -189.95898438 113.29199219 C-180.60315969 107.75294929 -171.28309988 102.16003861 -162 96.5 C-151.36671155 90.01673213 -140.6763327 83.63522658 -129.95898438 77.29199219 C-120.60315969 71.75294929 -111.28309988 66.16003861 -102 60.5 C-91.36838441 54.0177521 -80.67977755 47.63709086 -69.96401978 41.29501343 C-60.50189472 35.69325683 -51.0769637 30.03517065 -41.6875 24.3125 C-32.69763749 18.8365104 -23.68803441 13.39682718 -14.63760376 8.02157593 C-13.42799869 7.30309418 -12.21882557 6.58388471 -11.01010132 5.86392212 C-9.34796506 4.87439566 -7.68380173 3.88827648 -6.01953125 2.90234375 C-4.59797729 2.05917603 -4.59797729 2.05917603 -3.14770508 1.19897461 C-1 0 -1 0 0 0 Z " fill="#012169" transform="translate(384,413)"/>
<path d="M0 0 C89.43 0 178.86 0 271 0 C268.09216417 2.90783583 265.20027338 4.81225693 261.69140625 6.8515625 C261.06193588 7.22256073 260.43246552 7.59355896 259.78392029 7.97579956 C258.42421312 8.77671799 257.06333365 9.57564888 255.70141602 10.37280273 C252.04662989 12.51244411 248.40070695 14.66709859 244.75390625 16.8203125 C244.01194 17.25792908 243.26997375 17.69554565 242.50552368 18.14642334 C235.63340657 22.2045282 228.81205562 26.34193429 222 30.5 C211.36767044 36.98481554 200.67630841 43.36478779 189.95898438 49.70800781 C180.60315969 55.24705071 171.28309988 60.83996139 162 66.5 C151.36671155 72.98326787 140.6763327 79.36477342 129.95898438 85.70800781 C120.60315969 91.24705071 111.28309988 96.83996139 102 102.5 C91.36838441 108.9822479 80.67977755 115.36290914 69.96401978 121.70498657 C60.50189472 127.30674317 51.0769637 132.96482935 41.6875 138.6875 C32.69763749 144.1634896 23.68803441 149.60317282 14.63760376 154.97842407 C13.42799869 155.69690582 12.21882557 156.41611529 11.01010132 157.13607788 C9.34796506 158.12560434 7.68380173 159.11172352 6.01953125 160.09765625 C5.07182861 160.65976807 4.12412598 161.22187988 3.14770508 161.80102539 C1 163 1 163 0 163 C0 109.21 0 55.42 0 0 Z " fill="#012169" transform="translate(576,0)"/>
<path d="M0 0 C89.43 0 178.86 0 271 0 C271 53.79 271 107.58 271 163 C259.76190476 157.38095238 259.76190476 157.38095238 255.0234375 154.4609375 C253.95738281 153.80802734 252.89132812 153.15511719 251.79296875 152.48242188 C251.23786621 152.14009521 250.68276367 151.79776855 250.11083984 151.44506836 C247.04576321 149.55558441 243.97189321 147.6805005 240.8984375 145.8046875 C239.93354401 145.21533417 239.93354401 145.21533417 238.94915771 144.61407471 C231.67186345 140.17679915 224.33639496 135.83858034 217 131.5 C206.38809111 125.22057376 195.81899337 118.87706624 185.29101562 112.45800781 C175.90157441 106.73548064 166.46261639 101.10060119 157 95.5 C146.38869902 89.21953143 135.81900773 82.877075 125.29101562 76.45800781 C115.90157441 70.73548064 106.46261639 65.10060119 97 59.5 C85.81820019 52.88187255 74.68725639 46.18739177 63.59350586 39.42285156 C55.30972103 34.37759314 46.98014956 29.41302591 38.63232422 24.47454834 C28.54699167 18.50786909 18.47672426 12.52228333 8.5 6.375 C7.62158447 5.83649414 6.74316895 5.29798828 5.83813477 4.74316406 C5.05623779 4.2581543 4.27434082 3.77314453 3.46875 3.2734375 C2.79263672 2.85497559 2.11652344 2.43651367 1.41992188 2.00537109 C0.95134766 1.67359863 0.48277344 1.34182617 0 1 C0 0.67 0 0.34 0 0 Z " fill="#012169" transform="translate(113,0)"/>
<path d="M0 0 C3.82136248 0.09315147 7.6432763 0.13339927 11.4654541 0.17852783 C18.92462374 0.2741833 26.38109326 0.42715248 33.83850098 0.61798096 C34.17346191 3.88018799 34.17346191 3.88018799 33.83850098 7.61798096 C31.62072754 9.70343018 31.62072754 9.70343018 28.47912598 11.42266846 C27.91213486 11.74352417 27.34514374 12.06437988 26.76097107 12.3949585 C24.88254126 13.45178229 22.98618909 14.47121026 21.08850098 15.49298096 C19.76035077 16.23418538 18.43395544 16.9785423 17.10925293 17.72589111 C15.05760748 18.88295414 13.00510891 20.03803636 10.94709778 21.18374634 C4.1953873 24.94471134 -2.38982002 28.94651366 -8.97399902 32.99298096 C-11.29135515 34.40976528 -13.61077323 35.82314068 -15.93103027 37.23516846 C-16.5145224 37.59033539 -17.09801453 37.94550232 -17.69918823 38.31143188 C-24.81946086 42.63708769 -31.99166304 46.87519366 -39.16149902 51.11798096 C-49.19859135 57.05829171 -59.20329902 63.04632415 -69.16149902 69.11798096 C-79.79478747 75.60124883 -90.48516633 81.98275438 -101.20251465 88.32598877 C-110.55833933 93.86503167 -119.87839914 99.45794234 -129.16149902 105.11798096 C-139.79478747 111.60124883 -150.48516633 117.98275438 -161.20251465 124.32598877 C-170.55833933 129.86503167 -179.87839914 135.45794234 -189.16149902 141.11798096 C-199.78809594 147.59716891 -210.47138433 153.97530178 -221.18237305 160.31390381 C-232.09527656 166.7737763 -242.95621597 173.31437709 -253.77868652 179.92462158 C-254.8382959 180.57108643 -255.89790527 181.21755127 -256.98962402 181.88360596 C-258.34942383 182.71553467 -258.34942383 182.71553467 -259.73669434 183.56427002 C-260.86687988 184.24199463 -261.99706543 184.91971924 -263.16149902 185.61798096 C-263.96859314 186.20104507 -264.77568726 186.78410919 -265.60723877 187.38484192 C-274.48534977 193.36718023 -282.24725354 193.54491182 -292.52087402 193.30157471 C-294.16279978 193.28848768 -295.80475323 193.27853822 -297.44671631 193.27156067 C-301.72829226 193.24507801 -306.00815471 193.17653495 -310.2890625 193.09863281 C-314.67338899 193.02648928 -319.05799763 192.99494111 -323.44274902 192.95977783 C-332.01644425 192.88513748 -340.58875736 192.76597365 -349.16149902 192.61798096 C-346.3855665 189.70843405 -343.30923167 187.77518808 -339.85290527 185.76641846 C-339.22343491 185.39542023 -338.59396454 185.024422 -337.94541931 184.6421814 C-336.58571214 183.84126297 -335.22483268 183.04233208 -333.86291504 182.24517822 C-330.20812891 180.10553685 -326.56220597 177.95088237 -322.91540527 175.79766846 C-322.17343903 175.36005188 -321.43147278 174.9224353 -320.66702271 174.47155762 C-313.79490559 170.41345276 -306.97355465 166.27604667 -300.16149902 162.11798096 C-289.52916947 155.63316542 -278.83780744 149.25319316 -268.1204834 142.90997314 C-258.76465871 137.37093025 -249.44459891 131.77801957 -240.16149902 126.11798096 C-229.52821058 119.63471309 -218.83783172 113.25320753 -208.1204834 106.90997314 C-198.76465871 101.37093025 -189.44459891 95.77801957 -180.16149902 90.11798096 C-169.52821058 83.63471309 -158.83783172 77.25320753 -148.1204834 70.90997314 C-138.76465871 65.37093025 -129.44459891 59.77801957 -120.16149902 54.11798096 C-110.20329475 48.04632155 -100.19842419 42.05857955 -90.16149902 36.11798096 C-77.59640376 28.68074201 -65.09372539 21.14749101 -52.62634277 13.54766846 C-51.55440674 12.92013672 -50.4824707 12.29260498 -49.37805176 11.64605713 C-46.10414592 9.68070396 -46.10414592 9.68070396 -43.19689941 7.14654541 C-30.92148005 -2.63523241 -14.83093146 -0.40032695 0 0 Z " fill="#C8112F" transform="translate(350.1614990234375,383.38201904296875)"/>
<path d="M0 0 C1.64192575 0.01308703 3.2838792 0.02303649 4.92584229 0.03001404 C9.20741824 0.0564967 13.48728069 0.12503976 17.76818848 0.20294189 C22.15251496 0.27508542 26.5371236 0.3066336 30.921875 0.34179687 C39.49557023 0.41643723 48.06788334 0.53560106 56.640625 0.68359375 C52.94730951 3.69025422 49.24777334 6.22004934 45.13671875 8.6328125 C44.51007828 9.00239578 43.88343781 9.37197906 43.23780823 9.75276184 C41.88987832 10.54740384 40.54096464 11.34037902 39.19116211 12.13183594 C35.56388486 14.25916804 31.94429502 16.39950697 28.32421875 18.5390625 C27.58843597 18.97358734 26.8526532 19.40811218 26.09457397 19.85580444 C19.24144324 23.90813244 12.43665783 28.0362863 5.640625 32.18359375 C-4.99187421 38.66813573 -15.68306221 45.04837896 -26.40039062 51.39160156 C-35.75621531 56.93064446 -45.07627512 62.52355514 -54.359375 68.18359375 C-64.99266345 74.66686162 -75.6830423 81.04836717 -86.40039062 87.39160156 C-95.75621531 92.93064446 -105.07627512 98.52355514 -114.359375 104.18359375 C-124.99266345 110.66686162 -135.6830423 117.04836717 -146.40039062 123.39160156 C-155.75621531 128.93064446 -165.07627512 134.52355514 -174.359375 140.18359375 C-184.31758195 146.25525479 -194.3225575 152.24281006 -204.359375 158.18359375 C-214.78898088 164.35779827 -225.19000534 170.5755469 -235.546875 176.87109375 C-237.20106445 177.8765625 -237.20106445 177.8765625 -238.88867188 178.90234375 C-239.94505859 179.54558594 -241.00144531 180.18882812 -242.08984375 180.8515625 C-243.06816162 181.43761765 -244.04647949 182.02367279 -245.05444336 182.62748718 C-247.17037158 183.94387565 -249.24869285 185.3240482 -251.27087402 186.78034973 C-259.75361053 192.67683473 -266.43445418 193.78882037 -276.84765625 193.46484375 C-278.28635979 193.44987602 -279.72510481 193.4385105 -281.16386414 193.43054199 C-284.90495431 193.40036039 -288.64345902 193.32211289 -292.38354492 193.23291016 C-296.21823161 193.15026781 -300.05334659 193.11436567 -303.88867188 193.07421875 C-311.38007021 192.98906695 -318.86935699 192.85299751 -326.359375 192.68359375 C-326.69433594 189.42138672 -326.69433594 189.42138672 -326.359375 185.68359375 C-324.14160156 183.59814453 -324.14160156 183.59814453 -321 181.87890625 C-320.14951332 181.39762268 -320.14951332 181.39762268 -319.28184509 180.90661621 C-317.40341529 179.84979241 -315.50706311 178.83036445 -313.609375 177.80859375 C-312.28122479 177.06738933 -310.95482946 176.3230324 -309.63012695 175.57568359 C-307.5784815 174.41862057 -305.52598293 173.26353834 -303.4679718 172.11782837 C-296.71626133 168.35686337 -290.13105401 164.35506105 -283.546875 160.30859375 C-281.22951888 158.89180942 -278.9101008 157.47843403 -276.58984375 156.06640625 C-276.00635162 155.71123932 -275.4228595 155.35607239 -274.82168579 154.99014282 C-267.70141317 150.66448702 -260.52921099 146.42638105 -253.359375 142.18359375 C-243.32228268 136.243283 -233.317575 130.25525055 -223.359375 124.18359375 C-212.72608655 117.70032588 -202.0357077 111.31882033 -191.31835938 104.97558594 C-181.96253469 99.43654304 -172.64247488 93.84363236 -163.359375 88.18359375 C-152.72608655 81.70032588 -142.0357077 75.31882033 -131.31835938 68.97558594 C-121.96253469 63.43654304 -112.64247488 57.84363236 -103.359375 52.18359375 C-92.73277808 45.7044058 -82.0494897 39.32627292 -71.33850098 32.9876709 C-60.42559746 26.52779841 -49.56465806 19.98719761 -38.7421875 13.37695312 C-37.68257812 12.73048828 -36.62296875 12.08402344 -35.53125 11.41796875 C-34.6247168 10.86334961 -33.71818359 10.30873047 -32.78417969 9.73730469 C-31.65399414 9.05958008 -30.52380859 8.38185547 -29.359375 7.68359375 C-28.55228088 7.10052963 -27.74518677 6.51746552 -26.91363525 5.91673279 C-18.03552426 -0.06560552 -10.27362048 -0.24333711 0 0 Z " fill="#C8112E" transform="translate(902.359375,-0.68359375)"/>
<path d="M0 0 C68.31 0 136.62 0 207 0 C207 41.25 207 82.5 207 125 C191.21494871 115.97997069 191.21494871 115.97997069 185.6171875 112.66015625 C185.00328156 112.29623276 184.38937561 111.93230927 183.75686646 111.55735779 C181.79541389 110.39379704 179.83511576 109.22831108 177.875 108.0625 C177.18680176 107.65370605 176.49860352 107.24491211 175.78955078 106.82373047 C165.58776216 100.76254397 155.42693575 94.63739328 145.29486084 88.46047974 C135.90415121 82.73710131 126.46393007 77.1013787 117 71.5 C106.38869902 65.21953143 95.81900773 58.877075 85.29101562 52.45800781 C75.90157084 46.73547847 66.4624812 41.10083452 57 35.5 C46.57039412 29.32579548 36.16936966 23.10804685 25.8125 16.8125 C24.70970703 16.1421875 23.60691406 15.471875 22.47070312 14.78125 C20.37329067 13.50411905 18.27705375 12.22505505 16.18212891 10.94384766 C13.89594397 9.54729982 11.6066582 8.15675896 9.31396484 6.77099609 C8.10899052 6.038834 6.90407359 5.30657745 5.69921875 4.57421875 C4.60826904 3.91381592 3.51731934 3.25341309 2.39331055 2.57299805 C1.60351807 2.05390869 0.81372559 1.53481934 0 1 C0 0.67 0 0.34 0 0 Z " fill="#012169" transform="translate(753,384)"/>
<path d="M0 0 C68.31 0 136.62 0 207 0 C204.09216417 2.90783583 201.20027338 4.81225693 197.69140625 6.8515625 C197.06193588 7.22256073 196.43246552 7.59355896 195.78392029 7.97579956 C194.42421312 8.77671799 193.06333365 9.57564888 191.70141602 10.37280273 C188.04662989 12.51244411 184.40070695 14.66709859 180.75390625 16.8203125 C180.01194 17.25792908 179.26997375 17.69554565 178.50552368 18.14642334 C171.63340657 22.2045282 164.81205562 26.34193429 158 30.5 C147.36767044 36.98481554 136.67630841 43.36478779 125.95898438 49.70800781 C116.60315969 55.24705071 107.28309988 60.83996139 98 66.5 C88.04179197 72.5716617 78.03676991 78.55913493 68 84.5 C57.77962771 90.55074652 47.58554638 96.64113003 37.4375 102.8125 C36.86800629 103.15876434 36.29851257 103.50502869 35.71176147 103.86178589 C29.52876527 107.62260474 23.35293715 111.39508975 17.1796875 115.171875 C15.56815796 116.15643677 15.56815796 116.15643677 13.92407227 117.16088867 C11.89464163 118.40115821 9.86642412 119.6434156 7.83959961 120.88793945 C6.95022705 121.431521 6.06085449 121.97510254 5.14453125 122.53515625 C4.36440674 123.013479 3.58428223 123.49180176 2.78051758 123.98461914 C1 125 1 125 0 125 C0 83.75 0 42.5 0 0 Z " fill="#012169" transform="translate(0,384)"/>
<path d="M0 0 C15.78505129 9.02002931 15.78505129 9.02002931 21.3828125 12.33984375 C21.99671844 12.70376724 22.61062439 13.06769073 23.24313354 13.44264221 C25.20458611 14.60620296 27.16488424 15.77168892 29.125 16.9375 C29.81319824 17.34629395 30.50139648 17.75508789 31.21044922 18.17626953 C41.41223784 24.23745603 51.57306425 30.36260672 61.70513916 36.53952026 C71.09584879 42.26289869 80.53606993 47.8986213 90 53.5 C100.61130098 59.78046857 111.18099227 66.122925 121.70898438 72.54199219 C131.09842916 78.26452153 140.5375188 83.89916548 150 89.5 C160.42960588 95.67420452 170.83063034 101.89195315 181.1875 108.1875 C182.29029297 108.8578125 183.39308594 109.528125 184.52929688 110.21875 C186.62670933 111.49588095 188.72294625 112.77494495 190.81787109 114.05615234 C193.10405603 115.45270018 195.3933418 116.84324104 197.68603516 118.22900391 C198.89100948 118.961166 200.09592641 119.69342255 201.30078125 120.42578125 C202.39173096 121.08618408 203.48268066 121.74658691 204.60668945 122.42700195 C205.79137817 123.20563599 205.79137817 123.20563599 207 124 C207 124.33 207 124.66 207 125 C138.69 125 70.38 125 0 125 C0 83.75 0 42.5 0 0 Z " fill="#012169" transform="translate(0,67)"/>
<path d="M0 0 C0 41.25 0 82.5 0 125 C-68.31 125 -136.62 125 -207 125 C-204.09216417 122.09216417 -201.20027338 120.18774307 -197.69140625 118.1484375 C-197.06193588 117.77743927 -196.43246552 117.40644104 -195.78392029 117.02420044 C-194.42421312 116.22328201 -193.06333365 115.42435112 -191.70141602 114.62719727 C-188.04662989 112.48755589 -184.40070695 110.33290141 -180.75390625 108.1796875 C-180.01194 107.74207092 -179.26997375 107.30445435 -178.50552368 106.85357666 C-171.63340657 102.7954718 -164.81205562 98.65806571 -158 94.5 C-147.36767044 88.01518446 -136.67630841 81.63521221 -125.95898438 75.29199219 C-116.60315969 69.75294929 -107.28309988 64.16003861 -98 58.5 C-88.04179197 52.4283383 -78.03676991 46.44086507 -68 40.5 C-57.77962771 34.44925348 -47.58554638 28.35886997 -37.4375 22.1875 C-36.86800629 21.84123566 -36.29851257 21.49497131 -35.71176147 21.13821411 C-29.52876527 17.37739526 -23.35293715 13.60491025 -17.1796875 9.828125 C-16.10533447 9.17175049 -15.03098145 8.51537598 -13.92407227 7.83911133 C-11.89464163 6.59884179 -9.86642412 5.3565844 -7.83959961 4.11206055 C-6.95022705 3.568479 -6.06085449 3.02489746 -5.14453125 2.46484375 C-3.97434448 1.74735962 -3.97434448 1.74735962 -2.78051758 1.01538086 C-1 0 -1 0 0 0 Z " fill="#012169" transform="translate(960,67)"/>
<path d="M0 0 C9.14628717 -0.40023648 18.28941073 -0.69899939 27.4426527 -0.88080692 C31.69700413 -0.96823526 35.94522571 -1.08592331 40.19604492 -1.2824707 C64.25480645 -2.36484025 80.08031946 0.55394966 99.79402161 14.74884033 C105.2772608 18.59903687 111.05516626 21.95485556 116.8125 25.375 C118.11064014 26.16271992 119.40765097 26.9523119 120.70239258 27.74560547 C129.42612938 33.06886952 138.20500131 38.29551432 147 43.5 C157.61143998 49.78023027 168.18099555 56.122927 178.70898438 62.54199219 C188.09842559 68.26451936 197.53738361 73.89939881 207 79.5 C217.61130098 85.78046857 228.18099227 92.122925 238.70898438 98.54199219 C248.09842863 104.26452121 257.53749636 109.89920394 267 115.5 C277.53422886 121.73592939 288.03857176 128.01760577 298.5 134.375 C299.08136719 134.72812256 299.66273438 135.08124512 300.26171875 135.44506836 C303.84553792 137.62293559 307.4276392 139.80338564 311 142 C311.69677856 142.31980331 312.39355713 142.63960663 313.1114502 142.96910095 C315.42194939 144.13045324 317.1656945 145.17104873 319 147 C320.09798247 150.4563319 319.93618485 153.73536983 319.78125 157.33203125 C319.76993042 158.32377853 319.75861084 159.31552582 319.74694824 160.33732605 C319.70224583 163.49770231 319.60189543 166.65350123 319.5 169.8125 C319.45986504 171.95761665 319.42336429 174.1028046 319.390625 176.24804688 C319.30253333 181.50025343 319.16876412 186.74979981 319 192 C310.20378113 187.31134706 301.62182402 182.29003573 293.0625 177.1875 C291.64389293 176.34372861 290.2252729 175.49997901 288.80664062 174.65625 C279.27004917 168.97821763 269.77248311 163.23819878 260.29568481 157.46102905 C250.9047055 151.73745757 241.46421483 146.10154725 232 140.5 C221.38869902 134.21953143 210.81900773 127.877075 200.29101562 121.45800781 C190.90157441 115.73548064 181.46261639 110.10060119 172 104.5 C161.38869902 98.21953143 150.81900773 91.877075 140.29101562 85.45800781 C130.90157441 79.73548064 121.46261639 74.10060119 112 68.5 C101.38869902 62.21953143 90.81900773 55.877075 80.29101562 49.45800781 C70.90157137 43.73547879 61.46250364 38.10079606 52 32.5 C41.46577114 26.26407061 30.96142824 19.98239423 20.5 13.625 C19.91863281 13.27187744 19.33726562 12.91875488 18.73828125 12.55493164 C15.15447401 10.37707166 11.57618363 8.19034943 8 6 C7.15824219 5.48920898 6.31648437 4.97841797 5.44921875 4.45214844 C3.61562043 3.32902933 1.80444406 2.16938486 0 1 C0 0.67 0 0.34 0 0 Z " fill="#C8112F" transform="translate(641,384)"/>
<path d="M0 0 C9.77047669 5.54313848 19.47033552 11.19522952 29.125 16.9375 C29.81319824 17.34629395 30.50139648 17.75508789 31.21044922 18.17626953 C41.41223784 24.23745603 51.57306425 30.36260672 61.70513916 36.53952026 C71.09584879 42.26289869 80.53606993 47.8986213 90 53.5 C100.61130098 59.78046857 111.18099227 66.122925 121.70898438 72.54199219 C131.09842559 78.26451936 140.53738361 83.89939881 150 89.5 C160.61130098 95.78046857 171.18099227 102.122925 181.70898438 108.54199219 C191.09842559 114.26451936 200.53738361 119.89939881 210 125.5 C220.61130098 131.78046857 231.18099227 138.122925 241.70898438 144.54199219 C251.09843941 150.26452778 260.53792499 155.89846636 270 161.5 C279.96966685 167.40559499 289.92878386 173.3278335 299.84448242 179.32373047 C301.05825024 180.05723276 302.27275113 180.78952359 303.48803711 181.52050781 C305.16477176 182.52959935 306.83831554 183.54398716 308.51171875 184.55859375 C309.45490967 185.12892334 310.39810059 185.69925293 311.36987305 186.28686523 C314.06157371 188.04010608 316.50601149 189.97871687 319 192 C309.85371283 192.40023648 300.71058927 192.69899939 291.5573473 192.88080692 C287.30299587 192.96823526 283.05477429 193.08592331 278.80395508 193.2824707 C254.74519355 194.36484025 238.91968054 191.44605034 219.20597839 177.25115967 C213.7227392 173.40096313 207.94483374 170.04514444 202.1875 166.625 C200.88935986 165.83728008 199.59234903 165.0476881 198.29760742 164.25439453 C189.57387062 158.93113048 180.79499869 153.70448568 172 148.5 C161.38856002 142.21976973 150.81900445 135.877073 140.29101562 129.45800781 C130.90157441 123.73548064 121.46261639 118.10060119 112 112.5 C101.38869902 106.21953143 90.81900773 99.877075 80.29101562 93.45800781 C70.90157137 87.73547879 61.46250364 82.10079606 52 76.5 C41.46577114 70.26407061 30.96142824 63.98239423 20.5 57.625 C19.91863281 57.27187744 19.33726563 56.91875488 18.73828125 56.55493164 C15.15446208 54.37706441 11.5723608 52.19661436 8 50 C7.30322144 49.68019669 6.60644287 49.36039337 5.8885498 49.03089905 C3.57805061 47.86954676 1.8343055 46.82895127 0 45 C-1.09798247 41.5436681 -0.93618485 38.26463017 -0.78125 34.66796875 C-0.76993042 33.67622147 -0.75861084 32.68447418 -0.74694824 31.66267395 C-0.70224583 28.50229769 -0.60189543 25.34649877 -0.5 22.1875 C-0.45986504 20.04238335 -0.42336429 17.8971954 -0.390625 15.75195312 C-0.30253333 10.49974657 -0.16876412 5.25020019 0 0 Z " fill="#C8112E" transform="translate(0,0)"/>
</svg>
