<?xml version="1.0" encoding="UTF-8"?>
<svg version="1.1" xmlns="http://www.w3.org/2000/svg" width="217" height="50">
<path d="M0 0 C3.3 0 6.6 0 10 0 C10.33 0.66 10.66 1.32 11 2 C11.99 1.34 12.98 0.68 14 0 C18.66085946 -0.45105092 20.89870976 -0.6560878 24.9375 1.75 C27.96567319 5.05346166 28.12885708 7.96000882 28.09765625 12.328125 C28.09443359 13.12734375 28.09121094 13.9265625 28.08789062 14.75 C28.07951172 15.575 28.07113281 16.4 28.0625 17.25 C28.05798828 18.09046875 28.05347656 18.9309375 28.04882812 19.796875 C28.03707961 21.86461401 28.01914522 23.93231624 28 26 C24.37 26 20.74 26 17 26 C16.67 20.72 16.34 15.44 16 10 C14.68 10 13.36 10 12 10 C11.67 15.28 11.34 20.56 11 26 C7.37 26 3.74 26 0 26 C0 17.42 0 8.84 0 0 Z " fill="#1A1917" transform="translate(0,12)"/>
<path d="M0 0 C2 2 2 2 2.08203125 4.03125 C1.39883566 10.28892553 0.01662276 16.03891387 -2 22 C0.93894537 20.95264366 1.92500581 20.12083415 3.59765625 17.42578125 C4.08105469 16.39839844 4.56445312 15.37101562 5.0625 14.3125 C5.57167969 13.24128906 6.08085938 12.17007812 6.60546875 11.06640625 C8.12324974 7.72898866 9.61181802 4.39333372 11 1 C13.64 1 16.28 1 19 1 C18.566875 2.62808594 18.566875 2.62808594 18.125 4.2890625 C17.74961979 5.7342763 17.37464103 7.17959441 17 8.625 C16.71382812 9.69427734 16.71382812 9.69427734 16.421875 10.78515625 C15.34982713 14.95848544 14.78053186 18.65178751 15 23 C18.42801659 21.88390157 20.5196392 20.75485269 22.4765625 17.6796875 C24.22467094 14.17324777 25.7605774 10.7182678 27 7 C25.35 7 23.7 7 22 7 C21.375 5.1875 21.375 5.1875 21 3 C21.66 2.01 22.32 1.02 23 0 C25.625 -0.1875 25.625 -0.1875 28 0 C30.63046419 4.52684536 30.12255341 8.01815715 29 13 C27.00512114 18.78824955 24.25977924 22.82428423 19 26 C15.82653493 26.72299813 13.15028395 26.87873195 10 26 C7.4375 23 7.4375 23 6 20 C5.38125 20.804375 4.7625 21.60875 4.125 22.4375 C2 25 2 25 0 26 C-1.875 26.16796875 -1.875 26.16796875 -4 26.1875 C-5.051875 26.20876953 -5.051875 26.20876953 -6.125 26.23046875 C-8 26 -8 26 -10 24 C-10.6160021 17.2239769 -8.99156696 11.44888349 -7 5 C-7.680625 5.99 -7.680625 5.99 -8.375 7 C-8.91125 7.66 -9.4475 8.32 -10 9 C-10.66 9 -11.32 9 -12 9 C-11.4568634 5.19804378 -9.84334437 3.49869657 -7 1 C-4.48718205 -0.25640898 -2.78302919 -0.20872719 0 0 Z " fill="#191817" transform="translate(55,12)"/>
<path d="M0 0 C0.66 0 1.32 0 2 0 C2 0.99 2 1.98 2 3 C2.99 3 3.98 3 5 3 C5.33 3.66 5.66 4.32 6 5 C6.33 4.34 6.66 3.68 7 3 C7.99 3 8.98 3 10 3 C10.33 3.66 10.66 4.32 11 5 C11.33 4.34 11.66 3.68 12 3 C16 3 16 3 18.6875 3.5625 C19.8321875 3.7790625 19.8321875 3.7790625 21 4 C21.33 3.67 21.66 3.34 22 3 C23.66617115 2.95936168 25.33388095 2.957279 27 3 C27.38063221 5.3260857 27.71269945 7.66055264 28 10 C26.19253866 11.80746134 23.49554219 11.17303483 21.0625 11.1875 C19.98097656 11.20167969 18.89945313 11.21585938 17.78515625 11.23046875 C15 11 15 11 13 9 C12.67 9.66 12.34 10.32 12 11 C11.01 11 10.02 11 9 11 C8.67 10.34 8.34 9.68 8 9 C7.67 9.66 7.34 10.32 7 11 C6.01 10.67 5.02 10.34 4 10 C3.67 9.01 3.34 8.02 3 7 C2.67 8.32 2.34 9.64 2 11 C0.02 11 -1.96 11 -4 11 C-4.66 9.35 -5.32 7.7 -6 6 C-6.33 7.65 -6.66 9.3 -7 11 C-7.66 11 -8.32 11 -9 11 C-9 8.36 -9 5.72 -9 3 C-6.03 3 -3.06 3 0 3 C0 2.01 0 1.02 0 0 Z M-2 5 C-2 6.32 -2 7.64 -2 9 C-1.34 8.67 -0.68 8.34 0 8 C-0.33 7.01 -0.66 6.02 -1 5 C-1.33 5 -1.66 5 -2 5 Z " fill="#191817" transform="translate(135,27)"/>
<path d="M0 0 C0.66 0 1.32 0 2 0 C2 0.99 2 1.98 2 3 C3.11375 3 4.2275 3 5.375 3 C8.25 3 11.125 3 14 3 C14.33 3.66 14.66 4.32 15 5 C15.33 4.34 15.66 3.68 16 3 C22.15234375 2.90234375 22.15234375 2.90234375 24 3 C25 4 25 4 25.125 7 C25 10 25 10 24 11 C22.33382885 11.04063832 20.66611905 11.042721 19 11 C18.67 10.34 18.34 9.68 18 9 C17.38125 9.33 16.7625 9.66 16.125 10 C13.50431935 11.23326148 11.92363612 11 9 11 C8.67 10.34 8.34 9.68 8 9 C7.67 9.66 7.34 10.32 7 11 C6.34 11 5.68 11 5 11 C4.34 9.35 3.68 7.7 3 6 C2.67 7.65 2.34 9.3 2 11 C1.34 11 0.68 11 0 11 C0 7.37 0 3.74 0 0 Z " fill="#181716" transform="translate(182,27)"/>
<path d="M0 0 C0.99 0 1.98 0 3 0 C3 16.5 3 33 3 50 C2.01 50 1.02 50 0 50 C0 33.5 0 17 0 0 Z " fill="#1B1A16" transform="translate(35,0)"/>
<path d="M0 0 C0.66 0 1.32 0 2 0 C2 0.99 2 1.98 2 3 C6.06282791 3.85035933 8.97697196 3.95282243 13 3 C16.27275026 3 18.846632 3.29925156 22 4 C22 4.66 22 5.32 22 6 C21.01 6 20.02 6 19 6 C19 6.66 19 7.32 19 8 C19.99 8 20.98 8 22 8 C21.67 8.99 21.34 9.98 21 11 C19.35 11 17.7 11 16 11 C16 10.34 16 9.68 16 9 C15.34 9 14.68 9 14 9 C14 9.66 14 10.32 14 11 C11 11 8 11 5 11 C4.34 9.35 3.68 7.7 3 6 C2.67 7.65 2.34 9.3 2 11 C1.34 11 0.68 11 0 11 C0 7.37 0 3.74 0 0 Z M10 5 C10 6.32 10 7.64 10 9 C10.99 8.67 11.98 8.34 13 8 C12.67 7.01 12.34 6.02 12 5 C11.34 5 10.68 5 10 5 Z " fill="#191817" transform="translate(137,12)"/>
<path d="M0 0 C1.65 0 3.3 0 5 0 C5.33 0.66 5.66 1.32 6 2 C6.66 1.34 7.32 0.68 8 0 C10.625 0.375 10.625 0.375 13 1 C13 1.66 13 2.32 13 3 C11.68 2.67 10.36 2.34 9 2 C9 3.32 9 4.64 9 6 C10.32 5.67 11.64 5.34 13 5 C12.67 5.99 12.34 6.98 12 8 C11.195625 7.814375 10.39125 7.62875 9.5625 7.4375 C8.716875 7.293125 7.87125 7.14875 7 7 C6.67 7.33 6.34 7.66 6 8 C4.00041636 8.04080783 1.99954746 8.04254356 0 8 C-0.98120464 4.94736336 -0.98120464 3.05263664 0 0 Z " fill="#191817" transform="translate(115,15)"/>
<path d="M0 0 C1.65 0.33 3.3 0.66 5 1 C5 1.99 5 2.98 5 4 C5.66 2.68 6.32 1.36 7 0 C8.65 0.33 10.3 0.66 12 1 C12 1.66 12 2.32 12 3 C11.01 3 10.02 3 9 3 C8.67 3.99 8.34 4.98 8 6 C9.32 5.67 10.64 5.34 12 5 C12 5.99 12 6.98 12 8 C8.04 8 4.08 8 0 8 C-0.92538169 4.29847322 -1.08174162 3.36541838 0 0 Z " fill="#1A1716" transform="translate(168,15)"/>
<path d="M0 0 C0.33 0.66 0.66 1.32 1 2 C2.7015625 1.9690625 2.7015625 1.9690625 4.4375 1.9375 C8 2 8 2 9 3 C9.04080783 4.99958364 9.04254356 7.00045254 9 9 C5.59437148 9.77842938 2.49234244 10.09978121 -1 10 C-1.9765625 3.9453125 -1.9765625 3.9453125 -2 2 C-1.34 1.34 -0.68 0.68 0 0 Z M1 4 C1 5.32 1 6.64 1 8 C1.99 7.67 2.98 7.34 4 7 C3.67 6.01 3.34 5.02 3 4 C2.34 4 1.68 4 1 4 Z " fill="#191816" transform="translate(165,28)"/>
<path d="M0 0 C0.99 0 1.98 0 3 0 C3.66 1.32 4.32 2.64 5 4 C5.33 2.68 5.66 1.36 6 0 C6.66 0 7.32 0 8 0 C8 3.63 8 7.26 8 11 C4 9 4 9 3 7 C2.67 8.32 2.34 9.64 2 11 C1.34 11 0.68 11 0 11 C0 7.37 0 3.74 0 0 Z " fill="#181716" transform="translate(108,27)"/>
<path d="M0 0 C0.99 0 1.98 0 3 0 C3 0.99 3 1.98 3 3 C4.32 3.33 5.64 3.66 7 4 C7 6.31 7 8.62 7 11 C6.34 11 5.68 11 5 11 C4.67 9.35 4.34 7.7 4 6 C3.67 7.65 3.34 9.3 3 11 C2.01 11 1.02 11 0 11 C0 7.37 0 3.74 0 0 Z " fill="#191817" transform="translate(181,12)"/>
<path d="M0 0 C0.66 0 1.32 0 2 0 C2 0.99 2 1.98 2 3 C3.65 3.33 5.3 3.66 7 4 C7 6.31 7 8.62 7 11 C6.01 11 5.02 11 4 11 C3.67 9.35 3.34 7.7 3 6 C2.67 7.65 2.34 9.3 2 11 C1.34 11 0.68 11 0 11 C0 7.37 0 3.74 0 0 Z " fill="#191817" transform="translate(129,12)"/>
<path d="M0 0 C3.53571429 0.53571429 3.53571429 0.53571429 5 2 C5.125 4.5 5.125 4.5 5 7 C4 8 4 8 1.5 8.125 C-1 8 -1 8 -2 7 C-2.1875 4.5625 -2.1875 4.5625 -2 2 C-1.34 1.34 -0.68 0.68 0 0 Z " fill="#1A1918" transform="translate(202,15)"/>
<path d="M0 0 C0.66 0 1.32 0 2 0 C2 0.99 2 1.98 2 3 C3.32 3 4.64 3 6 3 C6 5.64 6 8.28 6 11 C5.34 11 4.68 11 4 11 C3.67 9.35 3.34 7.7 3 6 C2.67 7.65 2.34 9.3 2 11 C1.34 11 0.68 11 0 11 C0 7.37 0 3.74 0 0 Z " fill="#181817" transform="translate(160,12)"/>
<path d="M0 0 C2.625 0.375 2.625 0.375 5 1 C5.625 3.375 5.625 3.375 6 6 C5.34 6.66 4.68 7.32 4 8 C1.375 7.625 1.375 7.625 -1 7 C-1.625 4.625 -1.625 4.625 -2 2 C-1.34 1.34 -0.68 0.68 0 0 Z M1 2 C1 3.32 1 4.64 1 6 C1.99 5.67 2.98 5.34 4 5 C3.67 4.01 3.34 3.02 3 2 C2.34 2 1.68 2 1 2 Z " fill="#181717" transform="translate(119,30)"/>
<path d="M0 0 C0.66 0 1.32 0 2 0 C2.66 1.65 3.32 3.3 4 5 C4.33 3.35 4.66 1.7 5 0 C5.66 0 6.32 0 7 0 C7 2.64 7 5.28 7 8 C5.00045254 8.04254356 2.99958364 8.04080783 1 8 C0 7 0 7 -0.0625 3.4375 C-0.041875 2.303125 -0.02125 1.16875 0 0 Z " fill="#191817" transform="translate(189,15)"/>
<path d="M0 0 C1.98 0 3.96 0 6 0 C6 0.66 6 1.32 6 2 C4.68 2 3.36 2 2 2 C2 2.99 2 3.98 2 5 C3.32 5 4.64 5 6 5 C6 5.66 6 6.32 6 7 C4.68 7 3.36 7 2 7 C2 8.32 2 9.64 2 11 C1.34 11 0.68 11 0 11 C0 7.37 0 3.74 0 0 Z " fill="#1A1917" transform="translate(108,12)"/>
<path d="M0 0 C1.98 0 3.96 0 6 0 C5.49396008 2.16874252 5.00016187 3.99967627 4 6 C4.66 6 5.32 6 6 6 C6 6.66 6 7.32 6 8 C4.02 8 2.04 8 0 8 C0.66 6.35 1.32 4.7 2 3 C1.34 2.67 0.68 2.34 0 2 C0 1.34 0 0.68 0 0 Z " fill="#181716" transform="translate(211,30)"/>
<path d="M0 0 C1.67542976 0.28604898 3.34385343 0.61781233 5 1 C5 1.66 5 2.32 5 3 C3.68 2.67 2.36 2.34 1 2 C1 3.32 1 4.64 1 6 C2.32 5.67 3.64 5.34 5 5 C4.67 5.99 4.34 6.98 4 8 C2.35 7.67 0.7 7.34 -1 7 C-1.04254356 5.00045254 -1.04080783 2.99958364 -1 1 C-0.67 0.67 -0.34 0.34 0 0 Z " fill="#1A1918" transform="translate(176,30)"/>
<path d="M0 0 C0.66 0 1.32 0 2 0 C2 3.63 2 7.26 2 11 C1.34 11 0.68 11 0 11 C0 7.37 0 3.74 0 0 Z " fill="#191918" transform="translate(208,27)"/>
<path d="M0 0 C0.66 0 1.32 0 2 0 C2 3.63 2 7.26 2 11 C1.34 11 0.68 11 0 11 C0 7.37 0 3.74 0 0 Z " fill="#191918" transform="translate(197,12)"/>
</svg>
