<?xml version="1.0" encoding="UTF-8"?>
<svg version="1.1" xmlns="http://www.w3.org/2000/svg" width="210" height="33">
<path d="M0 0 C2.97 0 5.94 0 9 0 C9 3.96 9 7.92 9 12 C11.64 12 14.28 12 17 12 C17 8.04 17 4.08 17 0 C19.97 0 22.94 0 26 0 C26 10.56 26 21.12 26 32 C23.03 32 20.06 32 17 32 C17 28.04 17 24.08 17 20 C14.36 20 11.72 20 9 20 C9 23.96 9 27.92 9 32 C6.03 32 3.06 32 0 32 C0 21.44 0 10.88 0 0 Z " fill="#000000" transform="translate(0,0)"/>
<path d="M0 0 C3.3 0 6.6 0 10 0 C10.33 7.92 10.66 15.84 11 24 C12.65 23.67 14.3 23.34 16 23 C17.20270964 20.59458071 17.20316663 18.89633409 17.31640625 16.2109375 C17.35830078 15.26992187 17.40019531 14.32890625 17.44335938 13.359375 C17.48267578 12.37453125 17.52199219 11.3896875 17.5625 10.375 C17.60568359 9.38242188 17.64886719 8.38984375 17.69335938 7.3671875 C17.79961069 4.91160162 17.90164964 2.45591297 18 0 C20.97 0 23.94 0 27 0 C27.08732726 3.89569135 27.14050185 7.79112982 27.1875 11.6875 C27.21263672 12.79029297 27.23777344 13.89308594 27.26367188 15.02929688 C27.27333984 16.09599609 27.28300781 17.16269531 27.29296875 18.26171875 C27.3086792 19.24100342 27.32438965 20.22028809 27.34057617 21.22924805 C26.84579061 25.25456799 25.0929683 27.8665514 22.3125 30.75 C17.65143483 33.26949469 13.31975231 33.21995872 8.25 32.375 C4.50123887 30.78898567 3.09342346 29.46220034 1 26 C0.13641223 22.59132454 -0.11917841 19.42608146 -0.09765625 15.91796875 C-0.09443359 14.98662109 -0.09121094 14.05527344 -0.08789062 13.09570312 C-0.07951172 12.13599609 -0.07113281 11.17628906 -0.0625 10.1875 C-0.05798828 9.20845703 -0.05347656 8.22941406 -0.04882812 7.22070312 C-0.03708702 4.81377569 -0.01915289 2.40687987 0 0 Z " fill="#000000" transform="translate(76,0)"/>
<path d="M0 0 C1.15371094 -0.01417969 2.30742188 -0.02835937 3.49609375 -0.04296875 C6.5625 0.1875 6.5625 0.1875 9.5625 2.1875 C8.6875 6.9375 8.6875 6.9375 7.5625 9.1875 C2.1175 8.6925 2.1175 8.6925 -3.4375 8.1875 C-0.80497311 10.82002689 0.34315075 11.68452096 3.5625 13.0625 C6.21136544 14.36010259 7.5954651 15.22346193 9.625 17.4375 C10.9328518 21.27386527 10.85721805 24.34355449 9.5625 28.1875 C6.82633632 31.42114798 4.93761974 32.09997206 0.8125 33.0625 C-3.70774909 33.43272993 -8.18554671 32.77849346 -12.4375 31.1875 C-13.4375 29.1875 -13.4375 29.1875 -12.5 26.0625 C-12.149375 25.11375 -11.79875 24.165 -11.4375 23.1875 C-7.8075 23.5175 -4.1775 23.8475 -0.4375 24.1875 C-1.0901059 21.1354212 -1.0901059 21.1354212 -3.1796875 20.16015625 C-3.88351563 19.85980469 -4.58734375 19.55945313 -5.3125 19.25 C-10.87916558 16.59635655 -10.87916558 16.59635655 -12.4375 13.1875 C-12.97796356 8.94100057 -12.92126179 6.92926808 -10.5625 3.3125 C-7.08735272 -0.16264728 -4.82349215 0.0268868 0 0 Z " fill="#000000" transform="translate(41.4375,-0.1875)"/>
<path d="M0 0 C2.97 0 5.94 0 9 0 C9 7.92 9 15.84 9 24 C12.96 24 16.92 24 21 24 C21 26.64 21 29.28 21 32 C14.07 32 7.14 32 0 32 C0 21.44 0 10.88 0 0 Z " fill="#000000" transform="translate(55,0)"/>
<path d="M0 0 C1.32 0 2.64 0 4 0 C4 1.32 4 2.64 4 4 C4.804375 3.979375 5.60875 3.95875 6.4375 3.9375 C9 4 9 4 10 5 C10.07205511 6.68608966 10.08386068 8.37500659 10.0625 10.0625 C10.05347656 10.98160156 10.04445312 11.90070312 10.03515625 12.84765625 C10.02355469 13.55792969 10.01195312 14.26820312 10 15 C9.01 15 8.02 15 7 15 C6.67 12.69 6.34 10.38 6 8 C5.67 8 5.34 8 5 8 C4.67 10.31 4.34 12.62 4 15 C2.20866022 15.05391993 0.41686101 15.09275571 -1.375 15.125 C-2.37273437 15.14820313 -3.37046875 15.17140625 -4.3984375 15.1953125 C-7 15 -7 15 -9 13 C-9.25 9.5 -9.25 9.5 -9 6 C-7 4 -7 4 -3.875 3.875 C-2.92625 3.91625 -1.9775 3.9575 -1 4 C-0.67 2.68 -0.34 1.36 0 0 Z M-6 8 C-5.67 9.32 -5.34 10.64 -5 12 C-3.35 12.33 -1.7 12.66 0 13 C0 10.69 0 8.38 0 6 C-2.08428209 6 -4.09817964 7.21976601 -6 8 Z " fill="#000000" transform="translate(173,0)"/>
<path d="M0 0 C0.99 0 1.98 0 3 0 C3 2.64 3 5.28 3 8 C3.99 8 4.98 8 6 8 C6 5.36 6 2.72 6 0 C7.32 0 8.64 0 10 0 C10.33 2.31 10.66 4.62 11 7 C11.66 6.01 12.32 5.02 13 4 C12.34 3.67 11.68 3.34 11 3 C11 2.01 11 1.02 11 0 C13.64 0 16.28 0 19 0 C18.45276317 3.37462715 17.9451 5.08235 16 8 C16.99 8 17.98 8 19 8 C19 8.99 19 9.98 19 11 C16.02077407 11.02683987 13.04178705 11.04676037 10.0625 11.0625 C8.78729492 11.07506836 8.78729492 11.07506836 7.48632812 11.08789062 C6.67744141 11.09111328 5.86855469 11.09433594 5.03515625 11.09765625 C4.2862915 11.10289307 3.53742676 11.10812988 2.76586914 11.11352539 C1 11 1 11 0 10 C-0.07205511 8.31391034 -0.08386068 6.62499341 -0.0625 4.9375 C-0.05347656 4.01839844 -0.04445313 3.09929688 -0.03515625 2.15234375 C-0.02355469 1.44207031 -0.01195313 0.73179688 0 0 Z " fill="#000000" transform="translate(120,21)"/>
<path d="M0 0 C3.0625 0.3125 3.0625 0.3125 4.9375 1.8125 C5.30875 2.3075 5.68 2.8025 6.0625 3.3125 C6.43375 2.8175 6.805 2.3225 7.1875 1.8125 C9.80944393 -0.28505514 11.80092472 0.09506165 15.0625 0.3125 C15.0625 1.3025 15.0625 2.2925 15.0625 3.3125 C13.7425 3.6425 12.4225 3.9725 11.0625 4.3125 C10.7325 5.6325 10.4025 6.9525 10.0625 8.3125 C11.7125 8.3125 13.3625 8.3125 15.0625 8.3125 C15.0625 9.3025 15.0625 10.2925 15.0625 11.3125 C11.6875 11.5 11.6875 11.5 8.0625 11.3125 C7.4025 10.3225 6.7425 9.3325 6.0625 8.3125 C5.69125 8.8075 5.32 9.3025 4.9375 9.8125 C2.27089115 11.94578708 0.38356337 11.66580461 -2.9375 11.3125 C-4.9375 9.3125 -4.9375 9.3125 -5.1875 5.8125 C-4.87458101 1.43163414 -4.40975115 0.46912246 0 0 Z M-0.9375 3.3125 C-1.2675 4.3025 -1.5975 5.2925 -1.9375 6.3125 C-1.6075 6.9725 -1.2775 7.6325 -0.9375 8.3125 C0.0525 8.3125 1.0425 8.3125 2.0625 8.3125 C1.7325 6.6625 1.4025 5.0125 1.0625 3.3125 C0.4025 3.3125 -0.2575 3.3125 -0.9375 3.3125 Z " fill="#000000" transform="translate(127.9375,3.6875)"/>
<path d="M0 0 C2.64590014 -0.02684679 5.29153096 -0.04676357 7.9375 -0.0625 C8.69224609 -0.07087891 9.44699219 -0.07925781 10.22460938 -0.08789062 C12.14994313 -0.09652441 14.07535581 -0.05224333 16 0 C17 1 17 1 17.09765625 3.28515625 C17.08605469 4.20167969 17.07445312 5.11820313 17.0625 6.0625 C17.05347656 6.98160156 17.04445312 7.90070312 17.03515625 8.84765625 C17.02355469 9.55792969 17.01195312 10.26820312 17 11 C16.01 11 15.02 11 14 11 C13.67 8.69 13.34 6.38 13 4 C12.67 4 12.34 4 12 4 C11.67 6.31 11.34 8.62 11 11 C9.68 11 8.36 11 7 11 C7 8.36 7 5.72 7 3 C6.01 3 5.02 3 4 3 C4 5.64 4 8.28 4 11 C2.68 11 1.36 11 0 11 C0 7.37 0 3.74 0 0 Z " fill="#000000" transform="translate(150,21)"/>
<path d="M0 0 C1.32 0 2.64 0 4 0 C4 1.98 4 3.96 4 6 C5.32 6 6.64 6 8 6 C8 4.02 8 2.04 8 0 C9.32 0 10.64 0 12 0 C12 4.95 12 9.9 12 15 C10.68 15 9.36 15 8 15 C8 13.02 8 11.04 8 9 C6.68 9 5.36 9 4 9 C4 10.98 4 12.96 4 15 C2.68 15 1.36 15 0 15 C0 10.05 0 5.1 0 0 Z " fill="#000000" transform="translate(110,0)"/>
<path d="M0 0 C1.32 0.33 2.64 0.66 4 1 C4 1.99 4 2.98 4 4 C5.65 4 7.3 4 9 4 C10.20272819 6.40545638 10.10071472 7.94996953 10.0625 10.625 C10.05347656 11.44226562 10.04445312 12.25953125 10.03515625 13.1015625 C10.02355469 13.72804688 10.01195312 14.35453125 10 15 C9.01 15 8.02 15 7 15 C6.67 12.36 6.34 9.72 6 7 C5.34 7 4.68 7 4 7 C4 9.64 4 12.28 4 15 C2.68 15 1.36 15 0 15 C0 10.05 0 5.1 0 0 Z " fill="#000000" transform="translate(144,0)"/>
<path d="M0 0 C0 3.3 0 6.6 0 10 C-1.27875 10.061875 -2.5575 10.12375 -3.875 10.1875 C-4.59429687 10.22230469 -5.31359375 10.25710938 -6.0546875 10.29296875 C-6.69664062 10.19628906 -7.33859375 10.09960938 -8 10 C-10.15502531 6.76746204 -10.46856135 5.74849077 -10 2 C-7.58628749 -2.25949266 -4.24852727 -0.88176981 0 0 Z " fill="#000000" transform="translate(210,5)"/>
<path d="M0 0 C2 2 2 2 2.1953125 4.1640625 C2.17210937 4.97617187 2.14890625 5.78828125 2.125 6.625 C2.10695312 7.44226563 2.08890625 8.25953125 2.0703125 9.1015625 C2.03550781 10.04128906 2.03550781 10.04128906 2 11 C0.72125 11.061875 -0.5575 11.12375 -1.875 11.1875 C-2.59429687 11.22230469 -3.31359375 11.25710937 -4.0546875 11.29296875 C-4.69664062 11.19628906 -5.33859375 11.09960938 -6 11 C-8.15502531 7.76746204 -8.46856135 6.74849077 -8 3 C-5.84871852 -0.2835349 -3.77529378 -0.48401202 0 0 Z " fill="#000000" transform="translate(147,21)"/>
<path d="M0 0 C0.99 0 1.98 0 3 0 C3 2.64 3 5.28 3 8 C3.66 7.67 4.32 7.34 5 7 C5.40729228 4.67843403 5.74438677 2.3431213 6 0 C6.99 0 7.98 0 9 0 C9 3.63 9 7.26 9 11 C6.03 11 3.06 11 0 11 C0 7.37 0 3.74 0 0 Z " fill="#000000" transform="translate(185,4)"/>
<path d="M0 0 C1.32 0.33 2.64 0.66 4 1 C4 4.63 4 8.26 4 12 C5.65 12 7.3 12 9 12 C9 12.99 9 13.98 9 15 C6.03 15 3.06 15 0 15 C0 10.05 0 5.1 0 0 Z " fill="#000000" transform="translate(110,17)"/>
<path d="M0 0 C0.33 0.99 0.66 1.98 1 3 C0.01 3.495 0.01 3.495 -1 4 C-0.34 4.33 0.32 4.66 1 5 C1.042721 6.66611905 1.04063832 8.33382885 1 10 C0 11 0 11 -3.5625 11.0625 C-4.696875 11.041875 -5.83125 11.02125 -7 11 C-7 10.01 -7 9.02 -7 8 C-6.34 7.67 -5.68 7.34 -5 7 C-5.66 6.34 -6.32 5.68 -7 5 C-7 3.68 -7 2.36 -7 1 C-4.53721199 -0.231394 -2.7204945 -0.07159196 0 0 Z " fill="#000000" transform="translate(162,4)"/>
<path d="M0 0 C0.99 0 1.98 0 3 0 C3 4.95 3 9.9 3 15 C2.01 15 1.02 15 0 15 C0 10.05 0 5.1 0 0 Z " fill="#000000" transform="translate(196,0)"/>
</svg>
