<svg version="1.1" id="Layer_1" xmlns="http://www.w3.org/2000/svg" xmlns:xlink="http://www.w3.org/1999/xlink" x="0px" y="0px"
	 width="100%" viewBox="0 0 512 359" enable-background="new 0 0 512 359" xml:space="preserve">
<path fill="#FF0000" opacity="1.000000" stroke="none" 
	d="
M513.000000,123.000000 
	C513.000000,160.687561 513.000000,198.375122 512.583252,236.355103 
	C511.778900,237.661209 511.134033,238.652618 511.044037,239.692062 
	C510.306885,248.210144 510.037415,256.785126 508.922760,265.250244 
	C507.241364,278.019226 505.991547,290.974152 502.756012,303.380005 
	C497.524933,323.437500 485.060944,337.883423 465.616333,346.251648 
	C453.320160,351.543427 440.266083,352.243927 427.387665,353.860901 
	C414.510406,355.477692 401.507874,356.236755 388.536560,356.924561 
	C376.133118,357.582275 363.699310,357.669861 351.278503,357.994385 
	C349.448456,358.042206 347.589355,357.837891 345.799164,358.112122 
	C345.118988,358.216278 344.595123,359.340637 344.000000,360.000000 
	C286.312439,360.000000 228.624878,360.000000 170.644211,359.582397 
	C169.004150,358.776642 167.670563,358.108490 166.308182,358.043335 
	C150.959488,357.309540 135.581711,357.011841 120.260864,355.912506 
	C102.423882,354.632599 84.598442,352.993988 66.834969,350.933624 
	C39.437187,347.755798 20.792976,332.605042 12.277219,306.712799 
	C5.508967,286.133881 4.166255,264.380798 2.924679,242.783752 
	C2.831199,241.157654 1.666657,239.593140 1.000001,238.000000 
	C1.000000,199.979111 1.000000,161.958206 1.416065,123.645370 
	C2.554151,117.575760 3.232778,111.792267 4.006684,106.021553 
	C5.983609,91.280403 7.480750,76.450356 10.129211,61.829655 
	C13.990659,40.512733 26.093323,24.843216 45.523079,15.290243 
	C55.578899,10.346127 66.617744,8.775833 77.758408,7.900826 
	C92.163582,6.769419 106.527374,5.086243 120.939529,4.076824 
	C131.338715,3.348471 141.789948,3.381168 152.210815,2.914492 
	C153.167206,2.871662 154.071503,1.665804 155.000000,1.000001 
	C222.687561,1.000000 290.375122,1.000000 358.355774,1.417623 
	C360.162933,2.223443 361.662537,2.874380 363.193298,2.958654 
	C376.548492,3.693912 389.926819,4.086627 403.263611,5.057014 
	C417.670441,6.105254 432.077850,7.355511 446.413208,9.105691 
	C456.795135,10.373204 466.790131,13.314273 475.668793,19.268665 
	C488.644196,27.970449 497.799927,39.499901 502.016266,54.668842 
	C507.929199,75.941948 509.963226,97.761360 511.079590,119.712990 
	C511.136810,120.838310 512.333679,121.905663 513.000000,123.000000 
M330.281494,175.233246 
	C288.998718,151.431534 247.715927,127.629829 206.119934,103.647545 
	C206.119934,154.893951 206.119934,205.439957 206.119934,256.810364 
	C250.499664,231.192810 294.304962,205.906845 338.794769,180.225769 
	C335.708008,178.441742 333.295746,177.047546 330.281494,175.233246 
z"/>
<path fill="#000000" opacity="1.000000" stroke="none" 
	d="
M344.468689,360.000000 
	C344.595123,359.340637 345.118988,358.216278 345.799164,358.112122 
	C347.589355,357.837891 349.448456,358.042206 351.278503,357.994385 
	C363.699310,357.669861 376.133118,357.582275 388.536560,356.924561 
	C401.507874,356.236755 414.510406,355.477692 427.387665,353.860901 
	C440.266083,352.243927 453.320160,351.543427 465.616333,346.251648 
	C485.060944,337.883423 497.524933,323.437500 502.756012,303.380005 
	C505.991547,290.974152 507.241364,278.019226 508.922760,265.250244 
	C510.037415,256.785126 510.306885,248.210144 511.044037,239.692062 
	C511.134033,238.652618 511.778900,237.661209 512.583252,236.823761 
	C513.000000,277.938477 513.000000,318.876984 513.000000,360.000000 
	C456.979248,360.000000 400.958282,360.000000 344.468689,360.000000 
z"/>
<path fill="#000000" opacity="1.000000" stroke="none" 
	d="
M1.000001,238.468658 
	C1.666657,239.593140 2.831199,241.157654 2.924679,242.783752 
	C4.166255,264.380798 5.508967,286.133881 12.277219,306.712799 
	C20.792976,332.605042 39.437187,347.755798 66.834969,350.933624 
	C84.598442,352.993988 102.423882,354.632599 120.260864,355.912506 
	C135.581711,357.011841 150.959488,357.309540 166.308182,358.043335 
	C167.670563,358.108490 169.004150,358.776642 170.175552,359.582397 
	C113.751457,360.000000 57.502918,360.000000 1.000000,360.000000 
	C1.000000,319.646118 1.000000,279.291718 1.000001,238.468658 
z"/>
<path fill="#000000" opacity="1.000000" stroke="none" 
	d="
M154.531342,1.000001 
	C154.071503,1.665804 153.167206,2.871662 152.210815,2.914492 
	C141.789948,3.381168 131.338715,3.348471 120.939529,4.076824 
	C106.527374,5.086243 92.163582,6.769419 77.758408,7.900826 
	C66.617744,8.775833 55.578899,10.346127 45.523079,15.290243 
	C26.093323,24.843216 13.990659,40.512733 10.129211,61.829655 
	C7.480750,76.450356 5.983609,91.280403 4.006684,106.021553 
	C3.232778,111.792267 2.554151,117.575760 1.416065,123.176712 
	C1.000000,82.397881 1.000000,41.795753 1.000000,1.000000 
	C52.020733,1.000000 103.041710,1.000000 154.531342,1.000001 
z"/>
<path fill="#000000" opacity="1.000000" stroke="none" 
	d="
M513.000000,122.531342 
	C512.333679,121.905663 511.136810,120.838310 511.079590,119.712990 
	C509.963226,97.761360 507.929199,75.941948 502.016266,54.668842 
	C497.799927,39.499901 488.644196,27.970449 475.668793,19.268665 
	C466.790131,13.314273 456.795135,10.373204 446.413208,9.105691 
	C432.077850,7.355511 417.670441,6.105254 403.263611,5.057014 
	C389.926819,4.086627 376.548492,3.693912 363.193298,2.958654 
	C361.662537,2.874380 360.162933,2.223443 358.824463,1.417623 
	C410.251862,1.000000 461.503693,1.000000 513.000000,1.000000 
	C513.000000,41.353897 513.000000,81.708290 513.000000,122.531342 
z"/>
<path fill="#FFFEFE" opacity="1.000000" stroke="none" 
	d="
M330.582520,175.443298 
	C333.295746,177.047546 335.708008,178.441742 338.794769,180.225769 
	C294.304962,205.906845 250.499664,231.192810 206.119934,256.810364 
	C206.119934,205.439957 206.119934,154.893951 206.119934,103.647545 
	C247.715927,127.629829 288.998718,151.431534 330.582520,175.443298 
z"/>
</svg>